<mxfile host="app.diagrams.net" modified="2023-04-22T20:14:51.695Z" agent="Mozilla/5.0 (Windows NT 10.0; Win64; x64) AppleWebKit/537.36 (KHTML, like Gecko) Chrome/108.0.0.0 Safari/537.36" version="21.2.1" etag="d-O98LwN6AlNSRzA-P3B" type="device">
  <diagram id="CvnpNuWeIHm1b7fnEABv" name="第 1 页">
    <mxGraphModel dx="871" dy="543" grid="1" gridSize="10" guides="1" tooltips="1" connect="1" arrows="1" fold="1" page="1" pageScale="1" pageWidth="827" pageHeight="1169" math="0" shadow="0">
      <root>
        <mxCell id="0" />
        <mxCell id="1" parent="0" />
        <mxCell id="aJYShDeODEE5gSqJWYjI-24" value="" style="group" vertex="1" connectable="0" parent="1">
          <mxGeometry x="70" y="71" width="234" height="199" as="geometry" />
        </mxCell>
        <mxCell id="aJYShDeODEE5gSqJWYjI-19" value="" style="rounded=1;whiteSpace=wrap;html=1;fillColor=none;dashed=1;" vertex="1" parent="aJYShDeODEE5gSqJWYjI-24">
          <mxGeometry y="109" width="230" height="90" as="geometry" />
        </mxCell>
        <mxCell id="aJYShDeODEE5gSqJWYjI-17" value="" style="rounded=1;whiteSpace=wrap;html=1;fillColor=none;dashed=1;" vertex="1" parent="aJYShDeODEE5gSqJWYjI-24">
          <mxGeometry width="230" height="80" as="geometry" />
        </mxCell>
        <mxCell id="aJYShDeODEE5gSqJWYjI-1" value="X1" style="ellipse;whiteSpace=wrap;html=1;aspect=fixed;fontStyle=1;fillColor=#f8cecc;strokeColor=#000000;" vertex="1" parent="aJYShDeODEE5gSqJWYjI-24">
          <mxGeometry x="50" y="30" width="40" height="40" as="geometry" />
        </mxCell>
        <mxCell id="aJYShDeODEE5gSqJWYjI-9" style="edgeStyle=orthogonalEdgeStyle;rounded=0;orthogonalLoop=1;jettySize=auto;html=1;exitX=0;exitY=0.5;exitDx=0;exitDy=0;entryX=1;entryY=0.5;entryDx=0;entryDy=0;" edge="1" parent="aJYShDeODEE5gSqJWYjI-24" source="aJYShDeODEE5gSqJWYjI-2" target="aJYShDeODEE5gSqJWYjI-1">
          <mxGeometry relative="1" as="geometry" />
        </mxCell>
        <mxCell id="aJYShDeODEE5gSqJWYjI-2" value="X2" style="ellipse;whiteSpace=wrap;html=1;aspect=fixed;fontStyle=1;fillColor=#f8cecc;strokeColor=#000000;" vertex="1" parent="aJYShDeODEE5gSqJWYjI-24">
          <mxGeometry x="130" y="30" width="40" height="40" as="geometry" />
        </mxCell>
        <mxCell id="aJYShDeODEE5gSqJWYjI-8" style="edgeStyle=orthogonalEdgeStyle;rounded=0;orthogonalLoop=1;jettySize=auto;html=1;exitX=1;exitY=0;exitDx=0;exitDy=0;entryX=0;entryY=0;entryDx=0;entryDy=0;" edge="1" parent="aJYShDeODEE5gSqJWYjI-24" source="aJYShDeODEE5gSqJWYjI-1" target="aJYShDeODEE5gSqJWYjI-2">
          <mxGeometry relative="1" as="geometry" />
        </mxCell>
        <mxCell id="aJYShDeODEE5gSqJWYjI-3" value="y1" style="whiteSpace=wrap;html=1;aspect=fixed;fillColor=#d5e8d4;strokeColor=#000000;fontStyle=1" vertex="1" parent="aJYShDeODEE5gSqJWYjI-24">
          <mxGeometry x="10" y="129" width="40" height="40" as="geometry" />
        </mxCell>
        <mxCell id="aJYShDeODEE5gSqJWYjI-10" style="rounded=0;orthogonalLoop=1;jettySize=auto;html=1;exitX=0;exitY=1;exitDx=0;exitDy=0;entryX=0.25;entryY=0;entryDx=0;entryDy=0;edgeStyle=orthogonalEdgeStyle;curved=1;" edge="1" parent="aJYShDeODEE5gSqJWYjI-24" source="aJYShDeODEE5gSqJWYjI-1" target="aJYShDeODEE5gSqJWYjI-3">
          <mxGeometry relative="1" as="geometry">
            <Array as="points">
              <mxPoint x="20" y="83" />
            </Array>
          </mxGeometry>
        </mxCell>
        <mxCell id="aJYShDeODEE5gSqJWYjI-16" style="edgeStyle=orthogonalEdgeStyle;rounded=0;orthogonalLoop=1;jettySize=auto;html=1;exitX=0;exitY=1;exitDx=0;exitDy=0;entryX=0.75;entryY=0;entryDx=0;entryDy=0;curved=1;" edge="1" parent="aJYShDeODEE5gSqJWYjI-24" source="aJYShDeODEE5gSqJWYjI-2" target="aJYShDeODEE5gSqJWYjI-3">
          <mxGeometry relative="1" as="geometry">
            <Array as="points">
              <mxPoint x="136" y="99" />
              <mxPoint x="40" y="99" />
            </Array>
          </mxGeometry>
        </mxCell>
        <mxCell id="aJYShDeODEE5gSqJWYjI-4" value="y2" style="whiteSpace=wrap;html=1;aspect=fixed;fillColor=#d5e8d4;strokeColor=#000000;fontStyle=1" vertex="1" parent="aJYShDeODEE5gSqJWYjI-24">
          <mxGeometry x="90" y="129" width="40" height="40" as="geometry" />
        </mxCell>
        <mxCell id="aJYShDeODEE5gSqJWYjI-5" value="y3" style="whiteSpace=wrap;html=1;aspect=fixed;fillColor=#d5e8d4;strokeColor=#000000;fontStyle=1" vertex="1" parent="aJYShDeODEE5gSqJWYjI-24">
          <mxGeometry x="170" y="129" width="40" height="40" as="geometry" />
        </mxCell>
        <mxCell id="aJYShDeODEE5gSqJWYjI-11" style="rounded=0;orthogonalLoop=1;jettySize=auto;html=1;exitX=0.5;exitY=1;exitDx=0;exitDy=0;entryX=0.25;entryY=0;entryDx=0;entryDy=0;edgeStyle=orthogonalEdgeStyle;curved=1;" edge="1" parent="aJYShDeODEE5gSqJWYjI-24" source="aJYShDeODEE5gSqJWYjI-1" target="aJYShDeODEE5gSqJWYjI-4">
          <mxGeometry relative="1" as="geometry">
            <Array as="points">
              <mxPoint x="70" y="109" />
              <mxPoint x="100" y="109" />
            </Array>
          </mxGeometry>
        </mxCell>
        <mxCell id="aJYShDeODEE5gSqJWYjI-6" style="edgeStyle=orthogonalEdgeStyle;rounded=0;orthogonalLoop=1;jettySize=auto;html=1;exitX=0.5;exitY=0;exitDx=0;exitDy=0;entryX=0;entryY=0;entryDx=0;entryDy=0;curved=1;" edge="1" parent="aJYShDeODEE5gSqJWYjI-24" source="aJYShDeODEE5gSqJWYjI-1" target="aJYShDeODEE5gSqJWYjI-1">
          <mxGeometry relative="1" as="geometry">
            <Array as="points">
              <mxPoint x="70" y="10" />
              <mxPoint x="56" y="10" />
            </Array>
          </mxGeometry>
        </mxCell>
        <mxCell id="aJYShDeODEE5gSqJWYjI-12" style="rounded=0;orthogonalLoop=1;jettySize=auto;html=1;exitX=1;exitY=1;exitDx=0;exitDy=0;entryX=0.25;entryY=0;entryDx=0;entryDy=0;edgeStyle=orthogonalEdgeStyle;curved=1;" edge="1" parent="aJYShDeODEE5gSqJWYjI-24" source="aJYShDeODEE5gSqJWYjI-1" target="aJYShDeODEE5gSqJWYjI-5">
          <mxGeometry relative="1" as="geometry">
            <Array as="points">
              <mxPoint x="84" y="99" />
              <mxPoint x="180" y="99" />
            </Array>
          </mxGeometry>
        </mxCell>
        <mxCell id="aJYShDeODEE5gSqJWYjI-7" style="edgeStyle=orthogonalEdgeStyle;rounded=0;orthogonalLoop=1;jettySize=auto;html=1;exitX=0.5;exitY=0;exitDx=0;exitDy=0;entryX=1;entryY=0;entryDx=0;entryDy=0;curved=1;" edge="1" parent="aJYShDeODEE5gSqJWYjI-24" source="aJYShDeODEE5gSqJWYjI-2" target="aJYShDeODEE5gSqJWYjI-2">
          <mxGeometry relative="1" as="geometry">
            <Array as="points">
              <mxPoint x="150" y="10" />
              <mxPoint x="164" y="10" />
            </Array>
          </mxGeometry>
        </mxCell>
        <mxCell id="aJYShDeODEE5gSqJWYjI-13" style="rounded=0;orthogonalLoop=1;jettySize=auto;html=1;exitX=1;exitY=1;exitDx=0;exitDy=0;entryX=0.75;entryY=0;entryDx=0;entryDy=0;edgeStyle=orthogonalEdgeStyle;curved=1;" edge="1" parent="aJYShDeODEE5gSqJWYjI-24" source="aJYShDeODEE5gSqJWYjI-2" target="aJYShDeODEE5gSqJWYjI-5">
          <mxGeometry relative="1" as="geometry">
            <Array as="points">
              <mxPoint x="200" y="83" />
            </Array>
          </mxGeometry>
        </mxCell>
        <mxCell id="aJYShDeODEE5gSqJWYjI-14" style="rounded=0;orthogonalLoop=1;jettySize=auto;html=1;exitX=0.5;exitY=1;exitDx=0;exitDy=0;edgeStyle=orthogonalEdgeStyle;curved=1;entryX=0.75;entryY=0;entryDx=0;entryDy=0;" edge="1" parent="aJYShDeODEE5gSqJWYjI-24" source="aJYShDeODEE5gSqJWYjI-2" target="aJYShDeODEE5gSqJWYjI-4">
          <mxGeometry relative="1" as="geometry">
            <mxPoint x="150" y="99" as="sourcePoint" />
            <mxPoint x="120" y="119" as="targetPoint" />
            <Array as="points">
              <mxPoint x="150" y="109" />
              <mxPoint x="120" y="109" />
            </Array>
          </mxGeometry>
        </mxCell>
        <mxCell id="aJYShDeODEE5gSqJWYjI-18" value="&lt;b&gt;States&lt;/b&gt;" style="text;html=1;align=center;verticalAlign=middle;resizable=0;points=[];autosize=1;strokeColor=none;fillColor=none;" vertex="1" parent="aJYShDeODEE5gSqJWYjI-24">
          <mxGeometry width="60" height="30" as="geometry" />
        </mxCell>
        <mxCell id="aJYShDeODEE5gSqJWYjI-20" value="&lt;b&gt;Variables&lt;/b&gt;" style="text;html=1;align=center;verticalAlign=middle;resizable=0;points=[];autosize=1;strokeColor=none;fillColor=none;" vertex="1" parent="aJYShDeODEE5gSqJWYjI-24">
          <mxGeometry x="10" y="169" width="80" height="30" as="geometry" />
        </mxCell>
        <mxCell id="aJYShDeODEE5gSqJWYjI-21" value="&lt;b&gt;Invisible&lt;/b&gt;" style="text;html=1;align=center;verticalAlign=middle;resizable=0;points=[];autosize=1;strokeColor=none;fillColor=none;" vertex="1" parent="aJYShDeODEE5gSqJWYjI-24">
          <mxGeometry x="164" width="70" height="30" as="geometry" />
        </mxCell>
        <mxCell id="aJYShDeODEE5gSqJWYjI-22" value="&lt;b&gt;Visible&lt;/b&gt;" style="text;html=1;align=center;verticalAlign=middle;resizable=0;points=[];autosize=1;strokeColor=none;fillColor=none;" vertex="1" parent="aJYShDeODEE5gSqJWYjI-24">
          <mxGeometry x="164" y="169" width="60" height="30" as="geometry" />
        </mxCell>
        <mxCell id="aJYShDeODEE5gSqJWYjI-23" value="" style="rounded=0;whiteSpace=wrap;html=1;fillColor=none;strokeColor=none;" vertex="1" parent="aJYShDeODEE5gSqJWYjI-24">
          <mxGeometry width="230" height="199" as="geometry" />
        </mxCell>
      </root>
    </mxGraphModel>
  </diagram>
</mxfile>
